<mxfile host="65bd71144e">
    <diagram id="C9pMarFbB6TXwQX7p874" name="Page-1">
        <mxGraphModel dx="790" dy="439" grid="1" gridSize="10" guides="1" tooltips="1" connect="1" arrows="1" fold="1" page="1" pageScale="1" pageWidth="850" pageHeight="1100" math="0" shadow="0">
            <root>
                <mxCell id="0"/>
                <mxCell id="1" parent="0"/>
                <mxCell id="2" value="Header" style="rounded=0;whiteSpace=wrap;html=1;" vertex="1" parent="1">
                    <mxGeometry x="25" y="20" width="800" height="50" as="geometry"/>
                </mxCell>
                <mxCell id="18" value="" style="group" vertex="1" connectable="0" parent="1">
                    <mxGeometry x="25" y="90" width="800" height="350" as="geometry"/>
                </mxCell>
                <mxCell id="3" value="ItemControl" style="rounded=0;whiteSpace=wrap;html=1;labelPosition=center;verticalLabelPosition=middle;align=center;verticalAlign=top;movable=1;resizable=1;rotatable=1;deletable=1;editable=1;connectable=1;" vertex="1" parent="18">
                    <mxGeometry width="800" height="350" as="geometry"/>
                </mxCell>
                <mxCell id="5" value="NewItemForm" style="rounded=0;whiteSpace=wrap;html=1;verticalAlign=top;movable=1;resizable=1;rotatable=1;deletable=1;editable=1;connectable=1;" vertex="1" parent="18">
                    <mxGeometry x="415.18987341772157" y="42.42424242424242" width="354.43037974683546" height="286.3636363636364" as="geometry"/>
                </mxCell>
                <mxCell id="13" value="" style="group" vertex="1" connectable="0" parent="18">
                    <mxGeometry x="30.37974683544304" y="42.42424242424242" width="354.43037974683546" height="286.3636363636364" as="geometry"/>
                </mxCell>
                <mxCell id="4" value="ItemList" style="rounded=0;whiteSpace=wrap;html=1;verticalAlign=top;" vertex="1" parent="13">
                    <mxGeometry width="354.43037974683546" height="222.72727272727272" as="geometry"/>
                </mxCell>
                <mxCell id="6" value="Item" style="rounded=0;whiteSpace=wrap;html=1;" vertex="1" parent="13">
                    <mxGeometry x="12.222784810126583" y="32.53939393939394" width="329.9848101265823" height="52.309090909090905" as="geometry"/>
                </mxCell>
                <mxCell id="14" value="Item" style="rounded=0;whiteSpace=wrap;html=1;" vertex="1" parent="13">
                    <mxGeometry x="12.222784810126576" y="95.45454545454545" width="329.9848101265823" height="52.309090909090905" as="geometry"/>
                </mxCell>
                <mxCell id="15" value="Item" style="rounded=0;whiteSpace=wrap;html=1;" vertex="1" parent="13">
                    <mxGeometry x="12.222784810126576" y="159.0909090909091" width="329.9848101265823" height="52.309090909090905" as="geometry"/>
                </mxCell>
                <mxCell id="16" value="Add Item" style="rounded=0;whiteSpace=wrap;html=1;" vertex="1" parent="18">
                    <mxGeometry x="30.37974683544304" y="275.75757575757575" width="354.43037974683546" height="53.03030303030303" as="geometry"/>
                </mxCell>
                <mxCell id="17" value="Submit" style="rounded=0;whiteSpace=wrap;html=1;" vertex="1" parent="18">
                    <mxGeometry x="465.8227848101266" y="265.1515151515151" width="253.16455696202533" height="53.03030303030303" as="geometry"/>
                </mxCell>
            </root>
        </mxGraphModel>
    </diagram>
</mxfile>